<?xml version="1.0" encoding="UTF-8"?>
<!DOCTYPE svg PUBLIC "-//W3C//DTD SVG 1.1//EN" "http://www.w3.org/Graphics/SVG/1.1/DTD/svg11.dtd">
<svg xmlns="http://www.w3.org/2000/svg" version="1.1" width="900px" height="600px" style="shape-rendering:geometricPrecision; text-rendering:geometricPrecision; image-rendering:optimizeQuality; fill-rule:evenodd; clip-rule:evenodd" xmlns:xlink="http://www.w3.org/1999/xlink">
<g><path style="opacity:1" fill="#181f1b" d="M -0.5,-0.5 C 5.5,-0.5 11.5,-0.5 17.5,-0.5C 11.8302,3.33704 5.83019,6.67037 -0.5,9.5C -0.5,6.16667 -0.5,2.83333 -0.5,-0.5 Z"/></g>
<g><path style="opacity:1" fill="#181d1b" d="M 21.5,-0.5 C 32.1667,-0.5 42.8333,-0.5 53.5,-0.5C 61.6041,4.72564 69.9375,9.72564 78.5,14.5C 79.8333,31.1667 79.8333,47.8333 78.5,64.5C 65.0657,72.6056 51.3991,80.2722 37.5,87.5C 24.8396,80.5103 12.1729,73.5103 -0.5,66.5C -0.5,48.5 -0.5,30.5 -0.5,12.5C 7.19861,8.65583 14.5319,4.32249 21.5,-0.5 Z"/></g>
<g><path style="opacity:1" fill="#181d1b" d="M 57.5,-0.5 C 102.5,-0.5 147.5,-0.5 192.5,-0.5C 192.333,11.1714 192.5,22.8381 193,34.5C 203.419,40.6265 213.919,46.6265 224.5,52.5C 235.081,46.6265 245.581,40.6265 256,34.5C 256.5,22.8381 256.667,11.1714 256.5,-0.5C 470.833,-0.5 685.167,-0.5 899.5,-0.5C 899.5,199.5 899.5,399.5 899.5,599.5C 830.833,599.5 762.167,599.5 693.5,599.5C 693.667,586.829 693.5,574.162 693,561.5C 672.752,549.96 652.585,538.293 632.5,526.5C 612.5,538.167 592.5,549.833 572.5,561.5C 571.501,574.149 571.168,586.816 571.5,599.5C 554.167,599.5 536.833,599.5 519.5,599.5C 523.517,596.733 527.684,594.066 532,591.5C 532.667,570.167 532.667,548.833 532,527.5C 513.582,516.707 495.082,506.04 476.5,495.5C 457.918,506.04 439.418,516.707 421,527.5C 420.333,548.833 420.333,570.167 421,591.5C 425.316,594.066 429.483,596.733 433.5,599.5C 344.167,599.5 254.833,599.5 165.5,599.5C 165.832,588.48 165.499,577.48 164.5,566.5C 152.329,559.247 139.996,552.247 127.5,545.5C 115.004,552.247 102.671,559.247 90.5,566.5C 89.5012,577.48 89.1679,588.48 89.5,599.5C 59.5,599.5 29.5,599.5 -0.5,599.5C -0.5,564.833 -0.5,530.167 -0.5,495.5C 13.2739,502.889 26.9406,510.556 40.5,518.5C 53.8333,510.833 67.1667,503.167 80.5,495.5C 81.8333,479.5 81.8333,463.5 80.5,447.5C 67.1667,439.833 53.8333,432.167 40.5,424.5C 26.9406,432.444 13.2739,440.111 -0.5,447.5C -0.5,321.5 -0.5,195.5 -0.5,69.5C 12.1326,76.4436 24.7993,83.4436 37.5,90.5C 52.0816,82.293 66.5816,73.9597 81,65.5C 81.6667,48.1667 81.6667,30.8333 81,13.5C 73.186,8.68136 65.3527,4.01469 57.5,-0.5 Z"/></g>
<g><path style="opacity:1" fill="#008238" d="M 17.5,-0.5 C 18.8333,-0.5 20.1667,-0.5 21.5,-0.5C 14.5319,4.32249 7.19861,8.65583 -0.5,12.5C -0.5,11.5 -0.5,10.5 -0.5,9.5C 5.83019,6.67037 11.8302,3.33704 17.5,-0.5 Z"/></g>
<g><path style="opacity:1" fill="#008639" d="M 697.5,20.5 C 709.018,26.1767 720.185,32.51 731,39.5C 731.667,52.1667 731.667,64.8333 731,77.5C 720.413,84.2118 709.58,90.5451 698.5,96.5C 687.42,90.5451 676.587,84.2118 666,77.5C 665.333,64.8333 665.333,52.1667 666,39.5C 676.481,33.0152 686.981,26.6818 697.5,20.5 Z"/></g>
<g><path style="opacity:1" fill="#181d1b" d="M 696.5,23.5 C 699.425,23.4598 702.091,24.2932 704.5,26C 712.667,30.8333 720.833,35.6667 729,40.5C 729.667,52.5 729.667,64.5 729,76.5C 719.038,82.5635 708.872,88.2302 698.5,93.5C 688.128,88.2302 677.962,82.5635 668,76.5C 667.333,64.5 667.333,52.5 668,40.5C 677.646,34.9331 687.146,29.2665 696.5,23.5 Z"/></g>
<g><path style="opacity:1" fill="#008338" d="M 192.5,-0.5 C 193.167,-0.5 193.833,-0.5 194.5,-0.5C 194.168,10.8529 194.501,22.1862 195.5,33.5C 205.043,39.1038 214.71,44.4372 224.5,49.5C 234.29,44.4372 243.957,39.1038 253.5,33.5C 254.499,22.1862 254.832,10.8529 254.5,-0.5C 255.167,-0.5 255.833,-0.5 256.5,-0.5C 256.667,11.1714 256.5,22.8381 256,34.5C 245.581,40.6265 235.081,46.6265 224.5,52.5C 213.919,46.6265 203.419,40.6265 193,34.5C 192.5,22.8381 192.333,11.1714 192.5,-0.5 Z"/></g>
<g><path style="opacity:1" fill="#181d1b" d="M 194.5,-0.5 C 214.5,-0.5 234.5,-0.5 254.5,-0.5C 254.832,10.8529 254.499,22.1862 253.5,33.5C 243.957,39.1038 234.29,44.4372 224.5,49.5C 214.71,44.4372 205.043,39.1038 195.5,33.5C 194.501,22.1862 194.168,10.8529 194.5,-0.5 Z"/></g>
<g><path style="opacity:1" fill="#008138" d="M 53.5,-0.5 C 54.8333,-0.5 56.1667,-0.5 57.5,-0.5C 65.3527,4.01469 73.186,8.68136 81,13.5C 81.6667,30.8333 81.6667,48.1667 81,65.5C 66.5816,73.9597 52.0816,82.293 37.5,90.5C 24.7993,83.4436 12.1326,76.4436 -0.5,69.5C -0.5,68.5 -0.5,67.5 -0.5,66.5C 12.1729,73.5103 24.8396,80.5103 37.5,87.5C 51.3991,80.2722 65.0657,72.6056 78.5,64.5C 79.8333,47.8333 79.8333,31.1667 78.5,14.5C 69.9375,9.72564 61.6041,4.72564 53.5,-0.5 Z"/></g>
<g><path style="opacity:1" fill="#007836" d="M 408.5,20.5 C 418.94,25.8881 429.273,31.5548 439.5,37.5C 440.833,49.5 440.833,61.5 439.5,73.5C 429.5,79.1667 419.5,84.8333 409.5,90.5C 399.5,84.8333 389.5,79.1667 379.5,73.5C 378.167,61.5 378.167,49.5 379.5,37.5C 389.394,32.0591 399.061,26.3924 408.5,20.5 Z"/></g>
<g><path style="opacity:1" fill="#181d1b" d="M 407.5,23.5 C 410.425,23.4598 413.091,24.2932 415.5,26C 422.5,30.1667 429.5,34.3333 436.5,38.5C 437.833,49.8333 437.833,61.1667 436.5,72.5C 427.732,77.9394 418.732,82.9394 409.5,87.5C 400.376,82.7702 391.376,77.7702 382.5,72.5C 381.167,61.1667 381.167,49.8333 382.5,38.5C 391.063,33.7256 399.396,28.7256 407.5,23.5 Z"/></g>
<g><path style="opacity:1" fill="#007836" d="M 539.5,113.5 C 552.35,119.842 564.85,126.842 577,134.5C 577.667,148.5 577.667,162.5 577,176.5C 565.078,183.879 552.912,190.879 540.5,197.5C 528.088,190.879 515.922,183.879 504,176.5C 503.333,162.5 503.333,148.5 504,134.5C 515.814,127.348 527.647,120.348 539.5,113.5 Z"/></g>
<g><path style="opacity:1" fill="#181d1b" d="M 538.5,116.5 C 541.425,116.46 544.091,117.293 546.5,119C 555.915,124.123 565.082,129.623 574,135.5C 574.667,148.833 574.667,162.167 574,175.5C 563.202,182.482 552.035,188.816 540.5,194.5C 528.965,188.816 517.798,182.482 507,175.5C 506.333,162.167 506.333,148.833 507,135.5C 517.481,129.015 527.981,122.682 538.5,116.5 Z"/></g>
<g><path style="opacity:1" fill="#008138" d="M 125.5,190.5 C 144.607,200.889 163.607,211.556 182.5,222.5C 183.833,245.167 183.833,267.833 182.5,290.5C 163.833,301.167 145.167,311.833 126.5,322.5C 107.833,311.833 89.1667,301.167 70.5,290.5C 69.1667,267.833 69.1667,245.167 70.5,222.5C 89.0602,212.059 107.393,201.392 125.5,190.5 Z"/></g>
<g><path style="opacity:1" fill="#181d1b" d="M 124.5,193.5 C 127.425,193.46 130.091,194.293 132.5,196C 148.749,205.374 164.916,214.874 181,224.5C 181.667,245.833 181.667,267.167 181,288.5C 163.04,299.229 144.873,309.562 126.5,319.5C 108.127,309.562 89.9602,299.229 72,288.5C 71.3333,267.167 71.3333,245.833 72,224.5C 89.6456,214.266 107.146,203.933 124.5,193.5 Z"/></g>
<g><path style="opacity:1" fill="#008439" d="M 726.5,292.5 C 740.015,299.176 753.182,306.509 766,314.5C 766.667,329.833 766.667,345.167 766,360.5C 753.295,368.033 740.462,375.367 727.5,382.5C 714.538,375.367 701.705,368.033 689,360.5C 688.333,345.167 688.333,329.833 689,314.5C 701.669,307.303 714.169,299.97 726.5,292.5 Z"/></g>
<g><path style="opacity:1" fill="#181d1b" d="M 725.5,295.5 C 728.425,295.46 731.091,296.293 733.5,298C 743.37,304.033 753.37,309.866 763.5,315.5C 764.833,330.167 764.833,344.833 763.5,359.5C 751.785,366.691 739.785,373.357 727.5,379.5C 715.268,373.273 703.268,366.606 691.5,359.5C 690.167,344.833 690.167,330.167 691.5,315.5C 703.133,309.169 714.466,302.503 725.5,295.5 Z"/></g>
<g><path style="opacity:1" fill="#008338" d="M 566.5,239.5 C 585.018,249.178 603.185,259.511 621,270.5C 621.667,291.167 621.667,311.833 621,332.5C 603.296,343.033 585.463,353.366 567.5,363.5C 549.537,353.366 531.704,343.033 514,332.5C 513.333,311.833 513.333,291.167 514,270.5C 531.646,260.266 549.146,249.933 566.5,239.5 Z"/></g>
<g><path style="opacity:1" fill="#181d1b" d="M 565.5,242.5 C 568.425,242.46 571.091,243.293 573.5,245C 588.585,253.96 603.751,262.793 619,271.5C 619.667,291.5 619.667,311.5 619,331.5C 601.938,341.405 584.771,351.072 567.5,360.5C 550.229,351.072 533.062,341.405 516,331.5C 515.333,311.5 515.333,291.5 516,271.5C 532.81,262.185 549.31,252.519 565.5,242.5 Z"/></g>
<g><path style="opacity:1" fill="#008639" d="M 441.5,343.5 C 453.018,349.177 464.185,355.51 475,362.5C 475.667,375.167 475.667,387.833 475,400.5C 464.413,407.212 453.58,413.545 442.5,419.5C 431.42,413.545 420.587,407.212 410,400.5C 409.333,387.833 409.333,375.167 410,362.5C 420.481,356.015 430.981,349.682 441.5,343.5 Z"/></g>
<g><path style="opacity:1" fill="#181d1b" d="M 440.5,346.5 C 443.425,346.46 446.091,347.293 448.5,349C 456.667,353.833 464.833,358.667 473,363.5C 473.667,375.5 473.667,387.5 473,399.5C 463.038,405.564 452.872,411.23 442.5,416.5C 432.128,411.23 421.962,405.564 412,399.5C 411.333,387.5 411.333,375.5 412,363.5C 421.646,357.933 431.146,352.266 440.5,346.5 Z"/></g>
<g><path style="opacity:1" fill="#181d1b" d="M 646.5,419.5 C 647.117,419.611 647.617,419.944 648,420.5C 648.5,442.497 648.667,464.497 648.5,486.5C 629.652,497.424 610.652,508.091 591.5,518.5C 572.348,508.091 553.348,497.424 534.5,486.5C 534.5,464.5 534.5,442.5 534.5,420.5C 553.348,409.576 572.348,398.909 591.5,388.5C 609.985,398.576 628.319,408.909 646.5,419.5 Z"/></g>
<g><path style="opacity:1" fill="#008138" d="M 648.5,418.5 C 647.508,418.328 646.842,418.662 646.5,419.5C 628.319,408.909 609.985,398.576 591.5,388.5C 572.348,398.909 553.348,409.576 534.5,420.5C 534.5,419.833 534.167,419.5 533.5,419.5C 552.442,407.689 571.775,396.355 591.5,385.5C 610.726,396.274 629.726,407.274 648.5,418.5 Z"/></g>
<g><path style="opacity:1" fill="#00923c" d="M 533.5,419.5 C 534.167,419.5 534.5,419.833 534.5,420.5C 534.5,442.5 534.5,464.5 534.5,486.5C 534.5,487.167 534.167,487.5 533.5,487.5C 532.167,464.833 532.167,442.167 533.5,419.5 Z"/></g>
<g><path style="opacity:1" fill="#00913c" d="M 646.5,419.5 C 646.842,418.662 647.508,418.328 648.5,418.5C 649.117,418.611 649.617,418.944 650,419.5C 650.83,442.337 650.663,465.004 649.5,487.5C 648.833,487.5 648.5,487.167 648.5,486.5C 648.667,464.497 648.5,442.497 648,420.5C 647.617,419.944 647.117,419.611 646.5,419.5 Z"/></g>
<g><path style="opacity:1" fill="#008639" d="M 287.5,344.5 C 301.351,351.511 314.851,359.177 328,367.5C 328.667,382.833 328.667,398.167 328,413.5C 314.963,421.366 301.796,429.033 288.5,436.5C 275.204,429.033 262.037,421.366 249,413.5C 248.333,398.167 248.333,382.833 249,367.5C 261.979,359.933 274.813,352.266 287.5,344.5 Z"/></g>
<g><path style="opacity:1" fill="#181d1b" d="M 286.5,347.5 C 289.425,347.46 292.091,348.293 294.5,350C 304.918,356.293 315.418,362.459 326,368.5C 326.667,383.167 326.667,397.833 326,412.5C 313.867,420.15 301.367,427.15 288.5,433.5C 275.896,426.739 263.396,419.739 251,412.5C 250.333,397.833 250.333,383.167 251,368.5C 263.144,361.852 274.977,354.852 286.5,347.5 Z"/></g>
<g><path style="opacity:1" fill="#008238" d="M -0.5,495.5 C -0.5,479.5 -0.5,463.5 -0.5,447.5C 13.2739,440.111 26.9406,432.444 40.5,424.5C 53.8333,432.167 67.1667,439.833 80.5,447.5C 81.8333,463.5 81.8333,479.5 80.5,495.5C 67.1667,503.167 53.8333,510.833 40.5,518.5C 26.9406,510.556 13.2739,502.889 -0.5,495.5 Z"/></g>
<g><path style="opacity:1" fill="#181d1b" d="M 38.5,427.5 C 41.4245,427.46 44.0912,428.293 46.5,430C 57.0032,436.419 67.6698,442.586 78.5,448.5C 79.8333,463.833 79.8333,479.167 78.5,494.5C 65.8101,501.539 53.1434,508.539 40.5,515.5C 27.8566,508.539 15.1899,501.539 2.5,494.5C 1.16667,479.167 1.16667,463.833 2.5,448.5C 14.8911,441.978 26.8911,434.978 38.5,427.5 Z"/></g>
<g><path style="opacity:1" fill="#008138" d="M 534.5,486.5 C 553.348,497.424 572.348,508.091 591.5,518.5C 610.652,508.091 629.652,497.424 648.5,486.5C 648.5,487.167 648.833,487.5 649.5,487.5C 630.558,499.311 611.225,510.645 591.5,521.5C 571.775,510.645 552.442,499.311 533.5,487.5C 534.167,487.5 534.5,487.167 534.5,486.5 Z"/></g>
<g><path style="opacity:1" fill="#007635" d="M 519.5,599.5 C 518.167,599.5 516.833,599.5 515.5,599.5C 520.021,596.647 524.521,593.647 529,590.5C 529.667,569.833 529.667,549.167 529,528.5C 511.707,518.104 494.207,508.104 476.5,498.5C 459.19,508.128 441.857,517.795 424.5,527.5C 423.167,548.833 423.167,570.167 424.5,591.5C 429.4,593.44 433.733,596.107 437.5,599.5C 436.167,599.5 434.833,599.5 433.5,599.5C 429.483,596.733 425.316,594.066 421,591.5C 420.333,570.167 420.333,548.833 421,527.5C 439.418,516.707 457.918,506.04 476.5,495.5C 495.082,506.04 513.582,516.707 532,527.5C 532.667,548.833 532.667,570.167 532,591.5C 527.684,594.066 523.517,596.733 519.5,599.5 Z"/></g>
<g><path style="opacity:1" fill="#181d1b" d="M 515.5,599.5 C 489.5,599.5 463.5,599.5 437.5,599.5C 433.733,596.107 429.4,593.44 424.5,591.5C 423.167,570.167 423.167,548.833 424.5,527.5C 441.857,517.795 459.19,508.128 476.5,498.5C 494.207,508.104 511.707,518.104 529,528.5C 529.667,549.167 529.667,569.833 529,590.5C 524.521,593.647 520.021,596.647 515.5,599.5 Z"/></g>
<g><path style="opacity:1" fill="#007835" d="M 693.5,599.5 C 692.5,599.5 691.5,599.5 690.5,599.5C 690.667,587.162 690.5,574.829 690,562.5C 670.984,551.493 651.984,540.493 633,529.5C 613.52,540.24 594.187,551.24 575,562.5C 574.5,574.829 574.333,587.162 574.5,599.5C 573.5,599.5 572.5,599.5 571.5,599.5C 571.168,586.816 571.501,574.149 572.5,561.5C 592.5,549.833 612.5,538.167 632.5,526.5C 652.585,538.293 672.752,549.96 693,561.5C 693.5,574.162 693.667,586.829 693.5,599.5 Z"/></g>
<g><path style="opacity:1" fill="#181d1b" d="M 690.5,599.5 C 651.833,599.5 613.167,599.5 574.5,599.5C 574.333,587.162 574.5,574.829 575,562.5C 594.187,551.24 613.52,540.24 633,529.5C 651.984,540.493 670.984,551.493 690,562.5C 690.5,574.829 690.667,587.162 690.5,599.5 Z"/></g>
<g><path style="opacity:1" fill="#007635" d="M 165.5,599.5 C 164.5,599.5 163.5,599.5 162.5,599.5C 162.832,588.813 162.499,578.146 161.5,567.5C 150.452,560.643 139.119,554.31 127.5,548.5C 115.881,554.31 104.548,560.643 93.5,567.5C 92.5013,578.146 92.168,588.813 92.5,599.5C 91.5,599.5 90.5,599.5 89.5,599.5C 89.1679,588.48 89.5012,577.48 90.5,566.5C 102.671,559.247 115.004,552.247 127.5,545.5C 139.996,552.247 152.329,559.247 164.5,566.5C 165.499,577.48 165.832,588.48 165.5,599.5 Z"/></g>
<g><path style="opacity:1" fill="#181d1b" d="M 162.5,599.5 C 139.167,599.5 115.833,599.5 92.5,599.5C 92.168,588.813 92.5013,578.146 93.5,567.5C 104.548,560.643 115.881,554.31 127.5,548.5C 139.119,554.31 150.452,560.643 161.5,567.5C 162.499,578.146 162.832,588.813 162.5,599.5 Z"/></g>
</svg>
